<svg id="Capa_1" data-name="Capa 1" xmlns="http://www.w3.org/2000/svg" viewBox="0 0 50 50"><defs><style>.cls-1{fill:#fff;}</style></defs><title>001</title><path class="cls-1" d="M24.65,1.34A24.42,24.42,0,1,0,49.2,25.67,24.54,24.54,0,0,0,24.65,1.34Zm16,38.16c-2.9-1.11-5.86-2-8.82-3-.76-.24-1.17-.58-1-1.38a22.89,22.89,0,0,1,.61-2.7c.84-2.5,1.85-5,2.57-7.5a15.38,15.38,0,0,0,0-3.53,40,40,0,0,1,.19-4.25,8.21,8.21,0,0,0-6-9.24,12.52,12.52,0,0,0-6.84-.05c-4.48,1.2-6.79,5.06-6.16,10a25.66,25.66,0,0,1,0,4.47,14.55,14.55,0,0,0,1.36,5.9,60.29,60.29,0,0,1,2,7.08c.19.76-.22,1.14-1,1.4-2.86,1-5.72,1.92-8.5,3.07A1.64,1.64,0,0,1,6.73,39,22.39,22.39,0,1,1,46.8,21.93,22.12,22.12,0,0,1,43,38.76,1.65,1.65,0,0,1,40.67,39.5Z"/></svg>